<?xml version="1.0" standalone="no"?><!DOCTYPE svg PUBLIC "-//W3C//DTD SVG 1.1//EN" "http://www.w3.org/Graphics/SVG/1.1/DTD/svg11.dtd"><svg t="1684308862747" class="icon" viewBox="0 0 1024 1024" version="1.1" xmlns="http://www.w3.org/2000/svg" p-id="4248" xmlns:xlink="http://www.w3.org/1999/xlink" width="200" height="200"><path d="M780.8 102.4H243.2A140.8 140.8 0 0 0 102.4 243.2v537.6A140.8 140.8 0 0 0 243.2 921.6h537.6A140.8 140.8 0 0 0 921.6 780.8V243.2A140.8 140.8 0 0 0 780.8 102.4zM243.2 179.2h537.6c35.328 0 64 28.672 64 64v537.6c0 35.328-28.672 64-64 64H243.2c-35.328 0-64-28.672-64-64V243.2c0-35.328 28.672-64 64-64z" fill="#cccccc" p-id="4249"></path><path d="M658.8416 347.4944l12.0832 0.2048c16.4864 0.6656 31.0784 2.6112 43.8784 5.9392 17.1008 4.4544 32.6656 12.8 46.336 24.7296 34.7648 29.696 52.0704 74.3936 52.0704 132.8128 0 18.8416-1.6384 36.1472-4.9664 51.9168a160.1536 160.1536 0 0 1-16.0256 44.2368 140.3392 140.3392 0 0 1-28.3648 35.9936c-9.216 8.2944-19.3024 14.9504-30.3104 19.968a134.7072 134.7072 0 0 1-34.6624 10.3936 229.0176 229.0176 0 0 1-28.672 2.6624l-10.496 0.1536h-77.9776l-6.8096-0.2048a58.0096 58.0096 0 0 1-26.2144-7.2192 40.704 40.704 0 0 1-18.7392-24.32 91.3408 91.3408 0 0 1-3.0208-19.968l-0.1536-7.9872V401.1008l0.3072-6.8608c1.1264-13.824 5.5808-24.9344 13.5168-32.9216 8.0384-8.0384 19.2-12.4416 33.2288-13.568l7.2704-0.256h77.7216zM363.52 347.5968c10.3424 0 19.4048 2.048 26.9824 6.3488 7.168 4.096 13.1072 9.4208 17.6128 15.9744 2.6112 3.7888 4.9664 7.7824 7.0144 11.9296l2.9184 6.4 8.9088 22.7328 79.4624 196.3008c4.6592 12.288 7.0656 21.76 7.0656 29.1328a38.656 38.656 0 0 1-12.2368 27.7504 40.704 40.704 0 0 1-29.5424 12.2368 37.376 37.376 0 0 1-30.464-14.1824 58.5216 58.5216 0 0 1-5.9904-9.6768l-2.9696-6.2976-6.9632-16.2816-10.8544-28.5696H312.9344l-13.6192 36.4544a116.0192 116.0192 0 0 1-13.0048 25.7536c-6.5024 8.704-16.6912 12.8-29.184 12.8a40.6528 40.6528 0 0 1-28.672-11.776 37.8368 37.8368 0 0 1-12.544-27.8016c0-5.376 0.8704-10.752 2.56-16.2304l1.28-3.7888 1.536-4.4032 79.104-200.8576 11.1104-27.7504c2.3552-5.12 4.8128-9.5744 7.4752-13.5168 4.5056-6.7584 10.4448-12.2368 17.7152-16.3328 7.5776-4.3008 16.5888-6.3488 26.8288-6.3488z m279.7568 52.0192h-41.728a10.24 10.24 0 0 0-10.24 10.24v204.0832c0 5.632 4.608 10.24 10.24 10.24h54.784l12.288-0.4608 4.9152-0.3584c6.656-0.6656 13.4656-2.2016 20.48-4.7104 7.4752-2.6624 14.08-6.4512 19.712-11.4176 23.04-19.456 34.1504-51.968 34.1504-96.4096 0-31.0784-4.7616-54.9376-14.9504-71.68-10.24-16.896-23.4496-28.16-39.424-33.0752a171.7248 171.7248 0 0 0-50.176-6.4512z m-280.1664 23.3984l-43.4176 120.9856h87.6032l-44.1856-120.9856z" fill="#cccccc" p-id="4250"></path></svg>