<?xml version="1.0" standalone="no"?><!DOCTYPE svg PUBLIC "-//W3C//DTD SVG 1.1//EN" "http://www.w3.org/Graphics/SVG/1.1/DTD/svg11.dtd"><svg t="1683370031064" class="icon" viewBox="0 0 1024 1024" version="1.1" xmlns="http://www.w3.org/2000/svg" p-id="4179" xmlns:xlink="http://www.w3.org/1999/xlink" width="200" height="200"><path d="M0 0m163.84 0l696.32 0q163.84 0 163.84 163.84l0 696.32q0 163.84-163.84 163.84l-696.32 0q-163.84 0-163.84-163.84l0-696.32q0-163.84 163.84-163.84Z" fill="#E83833" p-id="4180"></path><path d="M0 614.4m163.84 0l696.32 0q163.84 0 163.84 163.84l0 81.92q0 163.84-163.84 163.84l-696.32 0q-163.84 0-163.84-163.84l0-81.92q0-163.84 163.84-163.84Z" fill="#FFFFFF" opacity=".203" p-id="4181"></path><path d="M743.8336 819.2H278.71232a40.46848 40.46848 0 0 1-42.82368-41.71776l35.81952-385.47456a41.39008 41.39008 0 0 1 42.82368-35.328h68.11648A123.41248 123.41248 0 0 1 511.30368 245.76c69.40672 0 125.80864 49.152 128.65536 110.83776h68.1984a41.39008 41.39008 0 0 1 42.82368 35.328l35.86048 385.47456A40.5504 40.5504 0 0 1 743.8336 819.2zM511.30368 274.67776a92.85632 92.85632 0 0 0-96.41984 81.92h192.86016a92.85632 92.85632 0 0 0-96.44032-81.92z m96.70656 231.30112a97.28 97.28 0 0 1-193.4336 0h-32.23552c0 63.87712 57.7536 115.65056 129.024 115.65056s129.024-51.77344 129.024-115.65056z" fill="#FFFFFF" p-id="4182"></path></svg>